HIERARCHY
ROOT Hips
{
	OFFSET 0.000000 0.000000 0.000000
	CHANNELS 6 Xposition Yposition Zposition Zrotation Yrotation Xrotation 
	JOINT LHipJoint
	{
		OFFSET 0.000000 0.000000 0.000000
		CHANNELS 3 Zrotation Yrotation Xrotation
		JOINT LeftUpLeg
		{
			OFFSET 1.363060 -1.794630 0.839290
			CHANNELS 3 Zrotation Yrotation Xrotation
			JOINT LeftLeg
			{
				OFFSET 2.448110 -6.726130 0.000000
				CHANNELS 3 Zrotation Yrotation Xrotation
				JOINT LeftFoot
				{
					OFFSET 2.562200 -7.039590 0.000000
					CHANNELS 3 Zrotation Yrotation Xrotation
					JOINT LeftToeBase
					{
						OFFSET 0.157640 -0.433110 2.322550
						CHANNELS 3 Zrotation Yrotation Xrotation
						End Site
						{
							OFFSET 0.000000 0.000000 0.000000
						}
					}
				}
			}
		}
	}
	JOINT RHipJoint
	{
		OFFSET 0.000000 0.000000 0.000000
		CHANNELS 3 Zrotation Yrotation Xrotation
		JOINT RightUpLeg
		{
			OFFSET -1.305520 -1.794630 0.839290
			CHANNELS 3 Zrotation Yrotation Xrotation
			JOINT RightLeg
			{
				OFFSET -2.542530 -6.985550 0.000000
				CHANNELS 3 Zrotation Yrotation Xrotation
				JOINT RightFoot
				{
					OFFSET -2.568260 -7.056230 0.000000
					CHANNELS 3 Zrotation Yrotation Xrotation
					JOINT RightToeBase
					{
						OFFSET -0.164730 -0.452590 2.363150
						CHANNELS 3 Zrotation Yrotation Xrotation
						End Site
						{
							OFFSET 0.000000 0.000000 0.000000
						}
					}
				}
			}
		}
	}
	JOINT LowerBack
	{
		OFFSET 0.000000 0.000000 0.000000
		CHANNELS 3 Zrotation Yrotation Xrotation
		JOINT Spine
		{
			OFFSET 0.028270 2.035590 -0.193380
			CHANNELS 3 Zrotation Yrotation Xrotation
			JOINT Spine1
			{
				OFFSET 0.056720 2.048850 -0.042750
				CHANNELS 3 Zrotation Yrotation Xrotation
				JOINT Neck
				{
					OFFSET 0.000000 0.000000 0.000000
					CHANNELS 3 Zrotation Yrotation Xrotation
					JOINT Neck1
					{
						OFFSET -0.054170 1.746240 0.172020
						CHANNELS 3 Zrotation Yrotation Xrotation
						JOINT Head
						{
							OFFSET 0.104070 1.761360 -0.123970
							CHANNELS 3 Zrotation Yrotation Xrotation
							End Site
							{
								OFFSET 0.000000 0.000000 0.000000
							}
						}
					}
				}
				JOINT LeftShoulder
				{
					OFFSET 0.000000 0.000000 0.000000
					CHANNELS 3 Zrotation Yrotation Xrotation
					JOINT LeftArm
					{
						OFFSET 3.362410 1.200890 -0.311210
						CHANNELS 3 Zrotation Yrotation Xrotation
						JOINT LeftForeArm
						{
							OFFSET 4.983000 -0.000000 -0.000000
							CHANNELS 3 Zrotation Yrotation Xrotation
							JOINT LeftHand
							{
								OFFSET 3.483560 -0.000000 -0.000000
								CHANNELS 3 Zrotation Yrotation Xrotation
								JOINT LeftFingerBase
								{
									OFFSET 0.000000 0.000000 0.000000
									CHANNELS 3 Zrotation Yrotation Xrotation
									JOINT LeftHandIndex1
									{
										OFFSET 0.715260 -0.000000 -0.000000
										CHANNELS 3 Zrotation Yrotation Xrotation
										End Site
										{
											OFFSET 0.000000 0.000000 0.000000
										}
									}
								}
								JOINT LThumb
								{
									OFFSET 0.000000 0.000000 0.000000
									CHANNELS 3 Zrotation Yrotation Xrotation
									End Site
									{
										OFFSET 0.000000 0.000000 0.000000
									}
								}
							}
						}
					}
				}
				JOINT RightShoulder
				{
					OFFSET 0.000000 0.000000 0.000000
					CHANNELS 3 Zrotation Yrotation Xrotation
					JOINT RightArm
					{
						OFFSET -3.136600 1.374050 -0.404650
						CHANNELS 3 Zrotation Yrotation Xrotation
						JOINT RightForeArm
						{
							OFFSET -5.241900 -0.000000 -0.000000
							CHANNELS 3 Zrotation Yrotation Xrotation
							JOINT RightHand
							{
								OFFSET -3.444170 -0.000000 -0.000000
								CHANNELS 3 Zrotation Yrotation Xrotation
								JOINT RightFingerBase
								{
									OFFSET 0.000000 0.000000 0.000000
									CHANNELS 3 Zrotation Yrotation Xrotation
									JOINT RightHandIndex1
									{
										OFFSET -0.622530 -0.000000 -0.000000
										CHANNELS 3 Zrotation Yrotation Xrotation
										End Site
										{
											OFFSET 0.000000 0.000000 0.000000
										}
									}
								}
								JOINT RThumb
								{
									OFFSET 0.000000 0.000000 0.000000
									CHANNELS 3 Zrotation Yrotation Xrotation
									End Site
									{
										OFFSET 0.000000 0.000000 0.000000
									}
								}
							}
						}
					}
				}
			}
		}
	}
}
MOTION
Frames: 12
Frame Time: 0.008333
1.723942 17.244003 1.842358 -37.713713 -77.611252 40.653355 -11.724358 -2.196326 -3.819069 -4.901455 -7.749723 -4.070854 -1.029582 1.056265 16.158448 1.399055 7.765461 -8.282753 -0.127100 -0.000000 -30.257600 5.711781 5.965768 3.745416 -3.259752 -6.769559 -93.247575 3.668267 1.044950 2.145448 0.511852 0.934265 2.598148 -0.818300 -0.000000 -80.212900 6.842915 -4.658271 4.390412 0.364121 -4.877368 -2.549073 -7.731959 -4.893654 -1.150587 11.444745 -6.731364 -4.728158 -4.246706 -0.341685 0.690143 0.000000 0.000000 0.000000 -3.176469 -5.838502 2.249808 -67.966872 -9.068697 10.379363 -2.972761 -24.586293 -0.002423 5.226000 -5.271511 -0.248712 -0.071902 0.112403 0.000000 0.000000 0.000000 0.000000 0.000000 0.000000 0.000000 18.896165 -7.431501 1.608635 71.634689 -5.562726 -12.838693 3.970489 9.696504 0.013786 1.329553 9.051787 0.099827 0.078756 -0.041276 -0.000000 0.000000 0.000000 0.000000 0.000000 0.000000 0.000000 
1.723730 17.237498 1.840303 -36.591623 -77.414566 39.652877 -11.681054 -2.149743 -3.637746 -5.009014 -7.996697 -4.617775 -1.041892 1.050135 16.652922 1.389493 7.671027 -8.484991 -0.159400 0.000001 -30.151100 5.833196 5.967886 3.728593 -3.938021 -6.846916 -90.607394 3.359528 1.188488 0.472608 0.463147 -0.919371 4.324125 -1.573300 0.000000 -81.615500 6.640879 -4.659001 4.148640 0.332877 -4.884563 -2.570331 -7.752527 -4.899572 -1.110411 11.575103 -6.968741 -4.741731 -4.248490 -0.342401 0.691811 0.000000 0.000000 0.000000 -3.062776 -5.867541 2.182302 -68.185923 -8.949583 11.094861 -2.975625 -25.048695 -0.001778 4.849673 -5.156957 -0.225994 -0.071962 0.112228 0.000000 0.000000 0.000000 0.000000 0.000000 0.000000 0.000000 19.079569 -7.665571 1.566964 71.636801 -5.467616 -12.430750 3.956145 10.208550 0.013745 1.431450 9.087453 0.108432 0.077653 -0.041401 -0.000000 0.000000 0.000000 0.000000 0.000000 0.000000 0.000000 
1.724186 17.230618 1.840456 -35.931379 -77.281300 39.079691 -11.654180 -2.088471 -3.425295 -5.056661 -8.132280 -5.237327 -1.049402 1.045480 17.220109 1.379437 7.567796 -8.718396 -0.196100 -0.000001 -30.060900 5.948672 5.953376 3.602007 -4.150776 -6.768425 -87.136991 3.081839 1.414839 -2.428519 0.259310 -2.816319 7.730439 -2.318701 -0.000000 -83.057800 6.501535 -4.630574 3.944545 0.311576 -4.864621 -2.582788 -7.772537 -4.879020 -1.071258 11.676566 -7.179995 -4.767807 -4.249259 -0.342864 0.689805 0.000000 0.000000 0.000000 -3.041509 -5.834012 2.122844 -68.348970 -8.858525 11.825483 -2.977038 -25.543681 -0.001111 4.442296 -5.032580 -0.202277 -0.071672 0.111975 0.000000 0.000000 0.000000 0.000000 0.000000 0.000000 0.000000 19.225107 -7.846094 1.532886 71.619172 -5.330521 -12.055604 3.942878 10.688566 0.013777 1.490359 9.150997 0.113939 0.076873 -0.042051 -0.000000 0.000000 0.000000 0.000000 0.000000 0.000000 0.000000 
1.725643 17.223498 1.842964 -35.729287 -77.204811 38.848523 -11.641784 -2.009226 -3.189273 -5.055602 -8.163567 -5.781445 -1.051998 1.043107 17.778274 1.371017 7.474714 -8.955277 -0.232700 0.000000 -29.988901 6.039483 5.927948 3.299172 -3.625121 -6.633103 -82.936489 2.902819 1.687222 -6.396797 -0.141576 -4.311402 12.803323 -2.879100 0.000000 -84.170800 6.432296 -4.582270 3.852747 0.300970 -4.823015 -2.574095 -7.789910 -4.837173 -1.039684 11.742969 -7.349939 -4.801143 -4.248057 -0.342920 0.684695 0.000000 0.000000 0.000000 -3.112701 -5.738891 2.076033 -68.460312 -8.798936 12.544731 -2.976169 -26.058445 -0.000468 4.030245 -4.913323 -0.179358 -0.071052 0.111802 0.000000 0.000000 0.000000 0.000000 0.000000 0.000000 0.000000 19.319253 -7.960488 1.508029 71.590712 -5.151994 -11.718017 3.930111 11.124723 0.013873 1.505531 9.243081 0.116448 0.076365 -0.043165 -0.000000 0.000000 0.000000 0.000000 0.000000 0.000000 0.000000 
1.728086 17.216111 1.846717 -35.781067 -77.225209 38.776528 -11.641304 -1.928797 -2.992220 -5.072957 -8.153381 -6.116932 -1.055774 1.043363 18.219580 1.370822 7.441618 -9.164849 -0.265100 -0.000000 -29.917100 6.137331 5.836848 2.931107 -2.636745 -6.447587 -80.005953 2.868931 1.639669 -7.669349 -0.521383 -5.012021 17.332298 -3.144900 0.000000 -84.494300 6.377833 -4.518275 3.869441 0.286441 -4.760124 -2.558410 -7.802594 -4.774280 -1.022873 11.776088 -7.469655 -4.837882 -4.244217 -0.342434 0.676695 0.000000 0.000000 0.000000 -3.249713 -5.587282 2.045050 -68.532323 -8.750464 13.219449 -2.973549 -26.584158 0.000131 3.641744 -4.813748 -0.159043 -0.070179 0.111649 0.000000 0.000000 0.000000 0.000000 0.000000 0.000000 0.000000 19.360319 -8.009079 1.492643 71.564773 -4.941235 -11.416323 3.915931 11.509929 0.014010 1.479878 9.361728 0.115855 0.076039 -0.044619 -0.000000 0.000000 0.000000 0.000000 0.000000 0.000000 0.000000 
1.731467 17.208735 1.851305 -36.037783 -77.369239 38.876478 -11.663506 -1.872254 -2.903379 -5.113700 -8.098431 -6.201306 -1.065533 1.048241 18.490343 1.376019 7.453034 -9.332882 -0.291301 -0.000000 -29.862900 6.261072 5.631066 2.656367 -1.827749 -6.058737 -80.457809 2.902069 0.884405 -2.056261 -0.590779 -5.085129 18.681275 -3.236600 -0.000001 -83.613400 6.320842 -4.435704 3.952725 0.260785 -4.673467 -2.555324 -7.809748 -4.687771 -1.022777 11.775265 -7.532966 -4.877509 -4.237348 -0.341317 0.665518 0.000000 0.000000 0.000000 -3.437210 -5.368044 2.030629 -68.578149 -8.709985 13.830834 -2.969267 -27.100829 0.000656 3.305356 -4.747819 -0.142530 -0.069190 0.111456 0.000000 0.000000 0.000000 0.000000 0.000000 0.000000 0.000000 19.344314 -7.992257 1.485445 71.547787 -4.702287 -11.147900 3.900961 11.839528 0.014182 1.420596 9.501954 0.112665 0.075887 -0.046298 -0.000000 0.000000 0.000000 0.000000 0.000000 0.000000 0.000000 
1.735067 17.202127 1.856762 -36.629210 -77.531453 39.144704 -11.690080 -1.809613 -2.832309 -5.126511 -7.944066 -6.029843 -1.073041 1.055238 18.618165 1.380340 7.467329 -9.456031 -0.311000 0.000000 -29.839300 6.337632 5.454538 2.242892 -0.963597 -5.671696 -80.458974 2.841548 0.110913 3.468662 -0.640118 -5.029077 20.464081 -3.263201 -0.000000 -81.494499 6.315832 -4.354342 4.185472 0.244853 -4.583199 -2.522370 -7.811130 -4.597481 -1.035595 11.743719 -7.537537 -4.908995 -4.227658 -0.339828 0.654757 0.000000 0.000000 0.000000 -3.673130 -5.112095 2.027181 -68.606531 -8.668714 14.354170 -2.960846 -27.597059 0.001065 3.045325 -4.724333 -0.130822 -0.068138 0.111425 0.000000 0.000000 0.000000 0.000000 0.000000 0.000000 0.000000 19.274153 -7.904616 1.484525 71.536132 -4.442292 -10.902914 3.886701 12.114509 0.014371 1.336930 9.656247 0.107473 0.075860 -0.048111 -0.000000 0.000000 0.000000 0.000000 0.000000 0.000000 0.000000 
1.738124 17.197192 1.863363 -37.589021 -77.720401 39.688887 -11.723819 -1.742844 -2.774758 -5.095140 -7.674433 -5.705122 -1.077153 1.061252 18.620344 1.381118 7.466835 -9.532642 -0.323500 0.000000 -29.853900 6.373954 5.301808 1.756612 -0.141008 -5.246891 -79.942914 2.692779 -0.590711 8.536922 -0.682072 -4.886829 22.486221 -3.227301 0.000000 -78.647700 6.364141 -4.267356 4.498989 0.240357 -4.486019 -2.471300 -7.806770 -4.500377 -1.055822 11.683215 -7.485502 -4.931716 -4.215704 -0.338124 0.645394 0.000000 0.000000 0.000000 -3.957006 -4.814412 2.029425 -68.627271 -8.618246 14.776072 -2.947328 -28.058532 0.001338 2.880578 -4.748986 -0.124413 -0.067098 0.111462 0.000000 0.000000 0.000000 0.000000 0.000000 0.000000 0.000000 19.154837 -7.748741 1.487090 71.519554 -4.165652 -10.669082 3.875600 12.339138 0.014582 1.239753 9.815072 0.100883 0.076022 -0.049995 -0.000000 0.000000 0.000000 0.000000 0.000000 0.000000 0.000000 
1.739928 17.194578 1.871342 -38.888528 -77.942135 40.551129 -11.766787 -1.671881 -2.722845 -5.018081 -7.298838 -5.326047 -1.077485 1.063110 18.517360 1.377239 7.444195 -9.562667 -0.328600 -0.000000 -29.902600 6.385824 5.158457 1.256240 0.659038 -4.772101 -79.020669 2.498215 -1.181669 13.050011 -0.706786 -4.572420 24.499924 -3.068000 -0.000000 -75.869300 6.457032 -4.170542 4.826712 0.246719 -4.380387 -2.415286 -7.795749 -4.395215 -1.078515 11.595419 -7.384524 -4.945767 -4.201599 -0.336314 0.638230 0.000000 0.000000 0.000000 -4.285253 -4.475315 2.032252 -68.652409 -8.548147 15.088399 -2.928163 -28.471888 0.001465 2.821474 -4.822578 -0.123710 -0.066108 0.111466 0.000000 0.000000 0.000000 0.000000 0.000000 0.000000 0.000000 18.990412 -7.535135 1.490058 71.489524 -3.877567 -10.435469 3.869627 12.519978 0.014824 1.140914 9.968696 0.093692 0.076424 -0.051880 -0.000000 0.000000 0.000000 0.000000 0.000000 0.000000 0.000000 
1.739662 17.194603 1.880374 -40.415830 -78.193007 41.672785 -11.816806 -1.594775 -2.665675 -4.912721 -6.851805 -4.963382 -1.074815 1.058004 18.327320 1.369011 7.401216 -9.547283 -0.326500 0.000000 -29.972601 6.392349 5.012638 0.781654 1.462393 -4.268196 -77.850244 2.292496 -1.666761 17.076159 -0.703894 -4.006099 26.310509 -2.729600 0.000000 -73.860900 6.570910 -4.065253 5.117240 0.260349 -4.268895 -2.364670 -7.777315 -4.284738 -1.099784 11.485941 -7.245130 -4.950377 -4.185498 -0.334502 0.634174 0.000000 0.000000 0.000000 -4.641942 -4.103437 2.031134 -68.695044 -8.443520 15.287067 -2.903666 -28.825470 0.001439 2.869096 -4.941831 -0.128809 -0.065187 0.111318 0.000000 0.000000 0.000000 0.000000 0.000000 0.000000 0.000000 18.790068 -7.279796 1.489908 71.442662 -3.587894 -10.197584 3.869421 12.667214 0.015089 1.053503 10.106712 0.087202 0.077055 -0.053672 -0.000000 0.000000 0.000000 0.000000 0.000000 0.000000 0.000000 
1.736581 17.197302 1.889574 -42.013020 -78.460058 42.924869 -11.868736 -1.509604 -2.593536 -4.803308 -6.377638 -4.651888 -1.070462 1.044208 18.063162 1.357391 7.343876 -9.487765 -0.317800 -0.000001 -30.054100 6.408479 4.860047 0.351544 2.272763 -3.775749 -76.558582 2.090867 -2.068824 20.744474 -0.670267 -3.156404 27.804437 -2.187800 -0.000000 -73.001200 6.677976 -3.957043 5.342204 0.276649 -4.157081 -2.324380 -7.751090 -4.174340 -1.114888 11.363920 -7.088173 -4.947451 -4.167331 -0.332729 0.633142 0.000000 0.000000 0.000000 -5.001686 -3.710196 2.021848 -68.768564 -8.296621 15.376649 -2.875041 -29.105816 0.001281 3.014922 -5.099654 -0.139411 -0.064357 0.110904 0.000000 0.000000 0.000000 0.000000 0.000000 0.000000 0.000000 18.567255 -7.010471 1.483226 71.378597 -3.297803 -9.936582 3.874309 12.789954 0.015368 0.983989 10.221721 0.081911 0.077883 -0.055269 -0.000000 0.000000 0.000000 0.000000 0.000000 0.000000 0.000000 
1.730657 17.202247 1.898095 -43.537081 -78.725787 44.161769 -11.917614 -1.416021 -2.503391 -4.709748 -5.913833 -4.381744 -1.065712 1.021939 17.727434 1.343110 7.276903 -9.383477 -0.302500 -0.000000 -30.149500 6.442149 4.703419 -0.036453 3.083426 -3.342300 -75.206916 1.895513 -2.410280 24.176069 -0.609546 -2.035166 28.939505 -1.450400 -0.000001 -73.385300 6.758832 -3.852286 5.502710 0.291986 -4.050262 -2.294297 -7.717433 -4.069183 -1.123793 11.236841 -6.923117 -4.934971 -4.147120 -0.331033 0.635728 0.000000 0.000000 0.000000 -5.338657 -3.314906 2.003542 -68.883843 -8.101759 15.363889 -2.843796 -29.302802 0.001014 3.241569 -5.284615 -0.155117 -0.063599 0.110160 0.000000 0.000000 0.000000 0.000000 0.000000 0.000000 0.000000 18.331305 -6.741504 1.468959 71.305604 -3.016824 -9.673476 3.883032 12.902256 0.015646 0.947154 10.305764 0.079220 0.078785 -0.056627 -0.000000 0.000000 0.000000 0.000000 0.000000 0.000000 0.000000 
